<svg width="88" height="88" viewBox="0 0 88 88" fill="none" xmlns="http://www.w3.org/2000/svg">
<path d="M71.7587 0H16.2413C7.27147 0 0 7.27192 0 16.2423V71.7577C0 80.7281 7.27147 88 16.2413 88H71.7587C80.7285 88 88 80.7281 88 71.7577V16.2423C88 7.27192 80.7285 0 71.7587 0Z" fill="#9E93F6"/>
<path d="M74.1841 23.2485H66.1925C65.7855 42.9 59.9995 58.487 52.9155 58.487C51.1445 58.487 49.4505 57.5135 47.9105 55.737C52.646 51.2105 56.0725 39.0885 56.0725 33.8305C56.0725 32.2769 55.7665 30.7385 55.172 29.3032C54.5775 27.8678 53.7061 26.5636 52.6075 25.4651C51.5089 24.3665 50.2047 23.4951 48.7694 22.9005C47.334 22.306 45.7956 22 44.242 22C42.6884 22 41.1501 22.306 39.7147 22.9005C38.2794 23.4951 36.9752 24.3665 35.8766 25.4651C34.778 26.5636 33.9066 27.8678 33.3121 29.3032C32.7176 30.7385 32.4115 32.2769 32.4115 33.8305C32.4115 39.0885 35.8381 51.2105 40.5791 55.737C39.0336 57.508 37.3451 58.487 35.5686 58.487C28.4846 58.487 22.6986 42.9 22.2971 23.2485H14.3C14.3 23.639 14.3 24.0295 14.3 24.42C14.3 47.377 23.65 65.9835 35.2 65.9835C38.445 65.9835 41.5195 64.504 44.2585 61.8805C47.0085 64.504 50.072 65.9835 53.3225 65.9835C64.8725 65.9835 74.2225 47.377 74.2225 24.42C74.1895 24.024 74.1841 23.639 74.1841 23.2485ZM44.3905 49.786C44.3455 49.8057 44.2966 49.8151 44.2475 49.8135C44.2002 49.8211 44.1519 49.8211 44.1045 49.8135C41.9045 49.2635 40.1115 36.102 40.1115 33.8635C40.1115 32.7651 40.5479 31.7117 41.3246 30.935C42.1013 30.1583 43.1546 29.722 44.253 29.722C44.7974 29.7213 45.3365 29.8279 45.8396 30.0357C46.3428 30.2435 46.7999 30.5484 47.1851 30.9331C47.5703 31.3177 47.8758 31.7745 48.0843 32.2773C48.2928 32.7802 48.4001 33.3192 48.4001 33.8635C48.389 36.0965 46.618 49.236 44.3905 49.786Z" fill="white"/>
</svg>
