<svg width="25" height="24" viewBox="0 0 25 24" fill="none" xmlns="http://www.w3.org/2000/svg">
<path d="M12.9609 0C6.33354 0 0.960938 5.3726 0.960938 12C0.960938 18.6274 6.33351 24 12.9609 24C19.5884 24 24.9609 18.6274 24.9609 12C24.9609 5.3726 19.5884 0 12.9609 0Z" fill="#F9CCCF"/>
<path d="M0.5 12C0.5 5.64874 5.64875 0.5 12 0.5C18.3513 0.5 23.5 5.64874 23.5 12C23.5 18.3513 18.3513 23.5 12 23.5C5.64872 23.5 0.5 18.3513 0.5 12Z" stroke="#D3505D"/>
<path fill-rule="evenodd" clip-rule="evenodd" d="M14.2304 5.51709H11.127L11.6442 14.8274H13.7132L14.2304 5.51709ZM12.6787 19.9996C13.5357 19.9996 14.2304 19.3049 14.2304 18.4479C14.2304 17.5909 13.5357 16.8962 12.6787 16.8962C11.8217 16.8962 11.127 17.5909 11.127 18.4479C11.127 19.3049 11.8217 19.9996 12.6787 19.9996Z" fill="white"/>
<mask id="path-4-inside-1_2388_319684" fill="white">
<path fill-rule="evenodd" clip-rule="evenodd" d="M13.1034 5H10L10.5172 14.3103H12.5862L13.1034 5ZM11.5517 19.4825C12.4087 19.4825 13.1034 18.7878 13.1034 17.9308C13.1034 17.0738 12.4087 16.3791 11.5517 16.3791C10.6947 16.3791 10 17.0738 10 17.9308C10 18.7878 10.6947 19.4825 11.5517 19.4825Z"/>
</mask>
<path d="M10 5V4H8.9429L9.00154 5.05547L10 5ZM13.1034 5L14.1019 5.05547L14.1605 4H13.1034V5ZM10.5172 14.3103L9.51878 14.3658L9.57125 15.3103H10.5172V14.3103ZM12.5862 14.3103V15.3103H13.5322L13.5847 14.3658L12.5862 14.3103ZM10 6H13.1034V4H10V6ZM11.5157 14.2549L10.9985 4.94453L9.00154 5.05547L9.51878 14.3658L11.5157 14.2549ZM12.5862 13.3103H10.5172V15.3103H12.5862V13.3103ZM12.105 4.94453L11.5877 14.2549L13.5847 14.3658L14.1019 5.05547L12.105 4.94453ZM12.1034 17.9308C12.1034 18.2355 11.8564 18.4825 11.5517 18.4825V20.4825C12.961 20.4825 14.1034 19.3401 14.1034 17.9308H12.1034ZM11.5517 17.3791C11.8564 17.3791 12.1034 17.6261 12.1034 17.9308H14.1034C14.1034 16.5215 12.961 15.3791 11.5517 15.3791V17.3791ZM11 17.9308C11 17.6261 11.247 17.3791 11.5517 17.3791V15.3791C10.1424 15.3791 9 16.5215 9 17.9308H11ZM11.5517 18.4825C11.247 18.4825 11 18.2355 11 17.9308H9C9 19.3401 10.1424 20.4825 11.5517 20.4825V18.4825Z" fill="#D3505D" mask="url(#path-4-inside-1_2388_319684)"/>
</svg>
